name D:\school\WTK\thesis\model\3dpredictsim\Results\debug_batch\Pog_s1_tmt_aCst_d00_k1000_ig24.mot
datacolumns 128
datarows 4
range 0.53943787 0.57180414
endheader
time	pelvis_tilt	pelvis_list	pelvis_rotation	pelvis_tx	pelvis_ty	pelvis_tz	hip_flexion_l	hip_adduction_l	hip_rotation_l	hip_flexion_r	hip_adduction_r	hip_rotation_r	knee_angle_l	knee_angle_r	ankle_angle_l	ankle_angle_r	subtalar_angle_l	subtalar_angle_r	tmt_angle_l	tmt_angle_r	mtp_angle_l	mtp_angle_r	lumbar_extension	lumbar_bending	lumbar_rotation	arm_flex_l	arm_add_l	arm_rot_l	arm_flex_r	arm_add_r	arm_rot_r	elbow_flex_l	elbow_flex_r	pro_sup_l	pro_sup_r	glut_med1_l/activation	glut_med2_l/activation	glut_med3_l/activation	glut_min1_l/activation	glut_min2_l/activation	glut_min3_l/activation	semimem_l/activation	semiten_l/activation	bifemlh_l/activation	bifemsh_l/activation	sar_l/activation	add_long_l/activation	add_brev_l/activation	add_mag1_l/activation	add_mag2_l/activation	add_mag3_l/activation	tfl_l/activation	pect_l/activation	grac_l/activation	glut_max1_l/activation	glut_max2_l/activation	glut_max3_l/activation	iliacus_l/activation	psoas_l/activation	quad_fem_l/activation	gem_l/activation	peri_l/activation	rect_fem_l/activation	vas_med_l/activation	vas_int_l/activation	vas_lat_l/activation	med_gas_l/activation	lat_gas_l/activation	soleus_l/activation	tib_post_l/activation	flex_dig_l/activation	flex_hal_l/activation	tib_ant_l/activation	per_brev_l/activation	per_long_l/activation	per_tert_l/activation	ext_dig_l/activation	ext_hal_l/activation	ercspn_l/activation	intobl_l/activation	extobl_l/activation	glut_med1_r/activation	glut_med2_r/activation	glut_med3_r/activation	glut_min1_r/activation	glut_min2_r/activation	glut_min3_r/activation	semimem_r/activation	semiten_r/activation	bifemlh_r/activation	bifemsh_r/activation	sar_r/activation	add_long_r/activation	add_brev_r/activation	add_mag1_r/activation	add_mag2_r/activation	add_mag3_r/activation	tfl_r/activation	pect_r/activation	grac_r/activation	glut_max1_r/activation	glut_max2_r/activation	glut_max3_r/activation	iliacus_r/activation	psoas_r/activation	quad_fem_r/activation	gem_r/activation	peri_r/activation	rect_fem_r/activation	vas_med_r/activation	vas_int_r/activation	vas_lat_r/activation	med_gas_r/activation	lat_gas_r/activation	soleus_r/activation	tib_post_r/activation	flex_dig_r/activation	flex_hal_r/activation	tib_ant_r/activation	per_brev_r/activation	per_long_r/activation	per_tert_r/activation	ext_dig_r/activation	ext_hal_r/activation	ercspn_r/activation	intobl_r/activation	extobl_r/activation	
          0.53943787	         -2.92927528	          2.14133336	         -5.43714948	          0.67429734	          0.85835329	          0.00215459	         31.72511612	          3.02734229	         -2.14289747	        -17.75875629	         -1.69309104	          7.10406332	        -15.64357410	         -7.83175085	          6.11508738	          0.07152479	         -1.60321582	         11.41760818	          0.03606937	          1.73000997	         -0.11581551	         21.84863076	         -1.94244395	         -0.59746929	          1.85220124	         -6.96283882	        -13.48595752	         15.31646372	          8.73126227	        -13.45720523	         19.36307486	         10.49015979	         32.11601367	         86.51662706	         86.51662706	          0.05000032	          0.05000047	          0.05001783	          0.05000040	          0.05000051	          0.05000120	          0.05899048	          0.05899030	          0.15005928	          0.05000101	          0.05000485	          0.09836289	          0.15743988	          0.19566083	          0.16346683	          0.10403752	          0.05899005	          0.05315424	          0.05899134	          0.05000714	          0.06959448	          0.10129054	          0.05000113	          0.05000709	          0.21939720	          0.05090855	          0.05000243	          0.05000229	          0.12257369	          0.12736713	          0.10516873	          0.05899052	          0.05458967	          0.05899060	          0.05000012	          0.05000165	          0.05000298	          0.50072880	          0.35359582	          0.20319135	          0.27064773	          0.55624026	          0.22597771	          0.06524559	          0.10432647	          0.10769240	          0.31142726	          0.10743003	          0.07574056	          0.34057305	          0.22647546	          0.11165585	          0.05000368	          0.05000039	          0.05000026	          0.07919834	          0.11276013	          0.05410972	          0.05000087	          0.05000077	          0.05000166	          0.05000111	          0.31816388	          0.05001830	          0.05000086	          0.05000464	          0.05000262	          0.05000180	          0.34878940	          0.57328498	          0.05000021	          0.05000070	          0.05000043	          0.18922005	          0.07850160	          0.05001925	          0.05002401	          0.30967991	          0.41842956	          0.30331945	          0.25919467	          0.26512430	          0.34562871	          0.05000006	          0.06908132	          0.17619488	          0.05000051	          0.05000012	          0.05000034	          0.05000004	          0.05000004	          0.05000007	
          0.55022663	         -2.92352835	          2.23657549	         -5.70938264	          0.69051889	          0.85733577	          0.00194925	         31.08533414	          3.41086016	         -1.94329962	        -17.54917357	         -1.99084565	          6.87232810	        -15.47094153	         -9.87403302	          5.54555250	         -0.73574830	         -2.08966858	         12.39044305	          0.04245871	          1.48360343	         -0.10074398	         22.91605011	         -1.74974373	         -0.82776585	          1.92852244	         -8.00050328	        -13.48207884	         15.27078441	          8.50196808	        -13.47255684	         19.38681780	         10.39158610	         33.30608229	         86.51662706	         86.51662706	          0.05004308	          0.05000214	          0.05000044	          0.05000388	          0.05000252	          0.05000106	          0.05000009	          0.05000024	          0.12718927	          0.05000023	          0.05000241	          0.08337229	          0.13344523	          0.28377146	          0.20032183	          0.09078368	          0.05000046	          0.05000549	          0.05000133	          0.05899025	          0.05899083	          0.10894612	          0.05000049	          0.05000084	          0.52530906	          0.12184766	          0.09039861	          0.06959817	          0.22313357	          0.22620792	          0.19234058	          0.05000002	          0.05000005	          0.05000000	          0.05222571	          0.06959703	          0.05829673	          0.57431344	          0.34635258	          0.21380377	          0.45524959	          0.58895295	          0.21888032	          0.05530168	          0.08842632	          0.09127926	          0.26396346	          0.09105691	          0.06419862	          0.28866729	          0.19195897	          0.09463873	          0.05003828	          0.05000123	          0.05000273	          0.06712795	          0.09557512	          0.13922596	          0.09911848	          0.06959745	          0.05047913	          0.06950073	          0.26967353	          0.07613896	          0.05060153	          0.05000908	          0.05000485	          0.05000780	          0.29563129	          0.51233308	          0.05222721	          0.06955651	          0.05899114	          0.16038152	          0.07852421	          0.15909038	          0.15898137	          0.26248229	          0.35465768	          0.25709122	          0.21969165	          0.22471813	          0.29295271	          0.05000004	          0.05855291	          0.15104150	          0.05000017	          0.05000004	          0.05000023	          0.05000012	          0.06959791	          0.05000011	
          0.56101538	         -2.91372187	          2.33110552	         -5.95735343	          0.70703224	          0.85628900	          0.00175975	         30.29187485	          3.73303215	         -1.67141219	        -17.26796078	         -2.27951696	          6.62856764	        -15.77898870	        -12.03898788	          4.99013661	         -1.70987789	         -2.60562752	         13.29553469	         -0.03324576	          1.23274979	         -0.15223096	         23.81461805	         -1.53574438	         -1.06335826	          1.99468354	         -9.06140532	        -13.48545183	         15.23695074	          8.18370635	        -13.48981828	         19.34376688	         10.35414196	         34.47890270	         86.51662706	         86.51662706	          0.29346413	          0.05000022	          0.32805468	          0.05000071	          0.05000057	          0.28203277	          0.08809041	          0.05000135	          0.13052200	          0.05000038	          0.05000142	          0.08211287	          0.20011938	          0.24052303	          0.16979362	          0.12471553	          0.05000135	          0.06916170	          0.13333440	          0.05000027	          0.05000034	          0.09234214	          0.05899042	          0.05001089	          0.44524794	          0.10327733	          0.17695827	          0.05899089	          0.18912637	          0.19173219	          0.16302646	          0.05899061	          0.05899060	          0.05899062	          0.05899044	          0.05899031	          0.05899051	          0.48678377	          0.34168597	          0.18121861	          0.38587090	          0.61804778	          0.18552137	          0.05000011	          0.09749992	          0.07736760	          0.36574951	          0.07717917	          0.05441451	          0.24467265	          0.16270307	          0.08021513	          0.05000422	          0.05000095	          0.05000087	          0.05689721	          0.08100944	          0.15394359	          0.16416327	          0.05899198	          0.05898475	          0.05891182	          0.22857447	          0.08293888	          0.05191192	          0.05051907	          0.05233814	          0.05898093	          0.25057503	          0.48312095	          0.05899043	          0.05895625	          0.05000055	          0.13593817	          0.09609066	          0.13484423	          0.13475178	          0.22247796	          0.30060511	          0.21790852	          0.18620900	          0.19046957	          0.24830460	          0.05000009	          0.05000079	          0.19807589	          0.05000020	          0.05000034	          0.05000036	          0.05772439	          0.05899067	          0.05217423	
          0.57180414	         -2.90169393	          2.42391234	         -6.17308847	          0.72366052	          0.85522330	          0.00155885	         29.36358218	          4.01771299	         -1.39022451	        -16.89237693	         -2.55573527	          6.38301695	        -16.09205569	        -14.34631241	          4.60347190	         -2.80064810	         -3.13552067	         14.12647739	         -0.02036913	          0.95173472	         -0.15563274	         24.44983971	         -1.31831649	         -1.30136014	          2.05138359	        -10.09966530	        -13.49373315	         15.23820299	          7.80242825	        -13.51305499	         19.24624158	         10.34705545	         35.62191202	         86.51662706	         86.51662706	          0.34200837	          0.30474973	          0.38501709	          0.18636645	          0.17432129	          0.23904949	          0.07466504	          0.11677251	          0.11062958	          0.08198997	          0.05000426	          0.06959832	          0.16961970	          0.20386612	          0.14759292	          0.15550030	          0.05000047	          0.05862166	          0.11301585	          0.23117341	          0.17279595	          0.14014441	          0.05000023	          0.05000021	          0.37738883	          0.08753762	          0.14998910	          0.05000026	          0.16030327	          0.22960350	          0.15830685	          0.05000008	          0.05000014	          0.05000002	          0.05000001	          0.05000058	          0.05000032	          0.61219147	          0.37100326	          0.18487784	          0.64279232	          0.66290344	          0.33827173	          0.07481583	          0.08264023	          0.06557619	          0.31000699	          0.06541650	          0.05000006	          0.31285496	          0.13790601	          0.06798982	          0.06720538	          0.05000023	          0.05000019	          0.05000035	          0.06866675	          0.15847449	          0.13914405	          0.05000156	          0.05000113	          0.05000069	          0.19409627	          0.07030996	          0.05000065	          0.05000134	          0.05000083	          0.05000055	          0.21238558	          0.43742988	          0.05000011	          0.05000048	          0.05000030	          0.11522019	          0.10265045	          0.11429483	          0.11429481	          0.18857059	          0.25479058	          0.18469757	          0.15782936	          0.16144074	          0.21046121	          0.10712374	          0.14655078	          0.16788799	          0.05813027	          0.16965958	          0.05000394	          0.08987461	          0.05000004	          0.05000007	
